<svg width="389" height="177" viewBox="0 0 389 177" fill="none" xmlns="http://www.w3.org/2000/svg">
<path d="M85.5919 0H0.695869C16.1392 9.33675 20.6372 16.2637 20.1802 32.01V308.966C15.0229 319.67 10.1138 323.177 0 327.754H61.9323C111.882 329.574 138.695 343.263 185.101 382.728C222.56 409.204 243.582 419.476 281.131 423.088C332.992 422.954 356.224 415.761 386.207 388.991C335.12 404.881 306.469 405.327 255.384 388.991L171.88 354.197C129.848 332.86 106.351 323.818 64.7158 319.404V32.01C64.8481 16.6045 70.0745 9.83349 85.5919 0Z" fill="#031847"/>
<path d="M374.386 1.39111H163.538C163.538 1.39111 180.239 4.87046 183.022 11.1333C185.806 17.3961 183.022 308.269 183.022 308.269C176.593 319.889 171.598 323.988 161.45 329.145H248.434C239.081 323.733 234.196 319.638 226.862 308.269V166.312H278.356C297.947 168.377 307.536 173.956 320.108 198.322V125.256C306.223 149.113 296.785 154.355 278.356 155.874H226.862V11.1333H323.588C356.947 20.5059 371.207 31.9895 388.999 63.3234L374.386 1.39111Z" fill="#031847"/>
</svg>
