<svg width="151" height="146" viewBox="0 0 151 146" fill="none" xmlns="http://www.w3.org/2000/svg">
<g clip-path="url(#clip0_224_419)">
<path d="M99.2021 -0.714355H86.1073C88.4894 0.725794 89.1832 1.79425 89.1127 4.22303V46.9422C88.3172 48.5932 87.56 49.1342 86 49.8402H95.5528C103.257 50.121 107.393 52.2324 114.551 58.3196C120.329 62.4034 123.571 63.9878 129.363 64.545C137.362 64.5243 140.946 63.4148 145.571 59.2856C137.691 61.7366 133.271 61.8054 125.392 59.2856L112.512 53.9189C106.028 50.6278 102.404 49.2331 95.9821 48.5522V4.22303C96.0025 1.84681 96.8087 0.802414 99.2021 -0.714355Z" fill="#EDF0F5" fill-opacity="0.32"/>
<path d="M143.746 -0.499512H111.224C111.224 -0.499512 113.8 0.0371608 114.229 1.00317C114.658 1.96918 114.229 46.835 114.229 46.835C113.237 48.6272 112.467 49.2595 110.902 50.055H124.318C122.876 49.2202 122.122 48.5886 120.991 46.835V24.9388H128.934C131.956 25.2573 133.435 26.1178 135.374 29.8762V18.606C133.232 22.2859 131.776 23.0945 128.934 23.3287H120.991V1.00317H135.911C141.056 2.44886 143.256 4.22015 146 9.05326L143.746 -0.499512Z" fill="#EDF0F5" fill-opacity="0.32"/>
<path d="M47.2021 54.2856H34.1073C36.4894 55.7258 37.1832 56.7942 37.1127 59.223V101.942C36.3172 103.593 35.56 104.134 34 104.84H43.5528C51.2573 105.121 55.3931 107.232 62.551 113.32C68.3288 117.403 71.5713 118.988 77.3631 119.545C85.3624 119.524 88.9459 118.415 93.5706 114.286C85.6907 116.737 81.2714 116.805 73.3918 114.286L60.5116 108.919C54.0284 105.628 50.4041 104.233 43.9821 103.552V59.223C44.0025 56.8468 44.8087 55.8024 47.2021 54.2856Z" fill="#EDF0F5" fill-opacity="0.32"/>
<path d="M91.746 54.5005H59.2236C59.2236 54.5005 61.7996 55.0372 62.229 56.0032C62.6583 56.9692 62.229 101.835 62.229 101.835C61.2373 103.627 60.4669 104.26 58.9016 105.055H72.3184C70.8758 104.22 70.1223 103.589 68.9911 101.835V79.9388H76.9338C79.9557 80.2573 81.4347 81.1178 83.3739 84.8762V73.606C81.2321 77.2859 79.7763 78.0945 76.9338 78.3287H68.9911V56.0032H83.9106C89.0561 57.4489 91.2556 59.2201 94 64.0533L91.746 54.5005Z" fill="#EDF0F5" fill-opacity="0.32"/>
<path d="M113.202 86.2856H100.107C102.489 87.7258 103.183 88.7942 103.113 91.223V133.942C102.317 135.593 101.56 136.134 100 136.84H109.553C117.257 137.121 121.393 139.232 128.551 145.32C134.329 149.403 137.571 150.988 143.363 151.545C151.362 151.524 154.946 150.415 159.571 146.286C151.691 148.737 147.271 148.805 139.392 146.286L126.512 140.919C120.028 137.628 116.404 136.233 109.982 135.552V91.223C110.003 88.8468 110.809 87.8024 113.202 86.2856Z" fill="#EDF0F5" fill-opacity="0.32"/>
<path d="M157.746 86.5005H125.224C125.224 86.5005 127.8 87.0372 128.229 88.0032C128.658 88.9692 128.229 133.835 128.229 133.835C127.237 135.627 126.467 136.26 124.902 137.055H138.318C136.876 136.22 136.122 135.589 134.991 133.835V111.939H142.934C145.956 112.257 147.435 113.118 149.374 116.876V105.606C147.232 109.286 145.776 110.095 142.934 110.329H134.991V88.0032H149.911C155.056 89.4489 157.256 91.2201 160 96.0533L157.746 86.5005Z" fill="#EDF0F5" fill-opacity="0.32"/>
</g>
<defs>
<clipPath id="clip0_224_419">
<rect width="151" height="145" fill="white" transform="translate(0 0.285645)"/>
</clipPath>
</defs>
</svg>
