<svg width="299" height="125" viewBox="0 0 299 125" fill="none" xmlns="http://www.w3.org/2000/svg">
<path d="M65.7892 0H0.534872C12.4052 7.17659 15.8626 12.5009 15.5113 24.6041V237.483C11.5472 245.711 7.77388 248.406 0 251.925H47.6036C85.997 253.324 106.607 263.846 142.276 294.18C171.068 314.53 187.226 322.425 216.088 325.202C255.951 325.099 273.808 319.57 296.854 298.993C257.586 311.207 235.564 311.55 196.298 298.993L132.113 272.25C99.8061 255.849 81.7454 248.899 49.7431 245.506V24.6041C49.8448 12.7629 53.862 7.5584 65.7892 0Z" fill="#010818"/>
<path d="M287.768 1.06934H125.702C125.702 1.06934 138.538 3.7437 140.678 8.55754C142.817 13.3714 140.678 236.948 140.678 236.948C135.736 245.879 131.897 249.03 124.097 252.994H190.956C183.767 248.834 180.012 245.686 174.375 236.948V127.834H213.955C229.014 129.421 236.384 133.709 246.048 152.438V96.2765C235.375 114.614 228.12 118.644 213.955 119.811H174.375V8.55754H248.722C274.363 15.7617 285.324 24.5884 299 48.6729L287.768 1.06934Z" fill="#010818"/>
</svg>
