<svg width="24" height="26" viewBox="0 0 24 26" fill="none" xmlns="http://www.w3.org/2000/svg">
<path d="M5.25987 0H0.0427632C0.9918 0.57377 1.26822 0.999454 1.24013 1.96711V18.9868C0.9232 19.6446 0.621524 19.8602 0 20.1414H3.80592C6.87549 20.2533 8.52324 21.0945 11.375 23.5197C13.677 25.1468 14.9688 25.778 17.2763 26C20.4633 25.9918 21.891 25.5497 23.7336 23.9046C20.5941 24.8811 18.8334 24.9085 15.6941 23.9046L10.5625 21.7664C7.97953 20.4552 6.53557 19.8996 3.97698 19.6283V1.96711C3.98511 1.0204 4.30628 0.604297 5.25987 0Z" fill="#EDF0F5"/>
<path d="M23.0072 0.0854645H10.0499C10.0499 0.0854645 11.0762 0.29928 11.2473 0.684149C11.4183 1.06902 11.2473 18.944 11.2473 18.944C10.8522 19.6581 10.5452 19.91 9.92163 20.2269H15.267C14.6923 19.8943 14.3921 19.6427 13.9414 18.944V10.2203H17.1058C18.3098 10.3472 18.8991 10.6901 19.6716 12.1874V7.69731C18.8183 9.16341 18.2383 9.48557 17.1058 9.57889H13.9414V0.684149H19.8855C21.9355 1.26012 22.8118 1.96582 23.9052 3.89139L23.0072 0.0854645Z" fill="#EDF0F5"/>
</svg>
